<?xml version="1.0" standalone="no"?>
<!DOCTYPE svg PUBLIC "-//W3C//DTD SVG 20010904//EN"
 "http://www.w3.org/TR/2001/REC-SVG-20010904/DTD/svg10.dtd">
<svg version="1.0" xmlns="http://www.w3.org/2000/svg"
 width="512.000000pt" height="512.000000pt" viewBox="0 0 512.000000 512.000000"
 preserveAspectRatio="xMidYMid meet">
<metadata>
Created by potrace 1.13, written by Peter Selinger 2001-2015
</metadata>
<g transform="translate(0.000000,512.000000) scale(0.100000,-0.100000)"
fill="#000000" stroke="none">
<path d="M2536 4746 c-62 -14 -62 -14 -150 -119 -45 -53 -66 -63 -95 -45 -26
16 -41 2 -65 -62 -20 -51 -54 -92 -107 -125 -20 -13 -44 -41 -54 -62 -9 -21
-23 -51 -31 -67 -8 -16 -14 -40 -14 -53 0 -35 -18 -63 -40 -63 -28 0 -26 -34
5 -98 23 -47 59 -81 72 -68 4 3 10 25 14 48 11 64 31 131 42 146 5 6 16 12 24
12 12 0 14 -7 9 -27 -3 -16 -11 -53 -16 -83 -17 -86 -30 -111 -66 -126 -19 -8
-42 -14 -52 -14 -32 0 -101 58 -123 103 -38 77 -134 119 -187 82 -16 -12 -27
-13 -41 -5 -29 15 -93 12 -137 -6 -32 -14 -61 -15 -164 -10 -69 3 -141 9 -161
12 -48 8 -73 -16 -65 -60 32 -163 29 -317 -8 -391 -26 -53 -98 -113 -166 -141
-87 -35 -120 -62 -154 -125 -16 -30 -50 -85 -76 -124 -26 -38 -59 -101 -75
-140 -58 -147 -59 -149 -58 -443 0 -241 3 -287 23 -390 28 -143 92 -367 127
-442 58 -124 104 -213 142 -270 9 -14 21 -32 26 -41 34 -56 116 -167 134 -183
11 -11 21 -24 21 -29 0 -10 108 -127 126 -137 5 -3 8 -9 6 -13 -1 -5 2 -6 7
-3 5 4 18 -5 29 -19 14 -17 25 -23 38 -18 13 5 16 3 11 -10 -4 -11 -1 -17 9
-17 8 0 13 -4 9 -9 -3 -6 3 -15 14 -20 25 -14 41 -14 21 -1 -10 6 -11 10 -3
10 7 0 26 -15 42 -32 17 -18 57 -53 90 -78 33 -25 61 -51 61 -57 0 -7 7 -13
15 -13 8 0 14 -3 12 -8 -1 -4 1 -7 4 -7 3 0 13 -8 23 -17 9 -9 24 -15 34 -12
13 5 14 4 4 -4 -18 -12 11 -33 150 -106 140 -74 224 -105 316 -116 64 -8 79
-7 100 6 20 13 29 14 49 5 26 -12 63 -6 63 10 0 5 -10 10 -22 11 -77 6 -118
17 -118 34 0 16 16 19 25 4 9 -14 78 -13 93 2 9 9 18 9 37 0 32 -15 112 -16
120 -2 8 13 112 13 120 0 8 -13 92 -13 100 0 11 18 35 11 35 -10 0 -21 15 -27
25 -10 9 14 49 12 63 -2 10 -10 14 -8 18 10 8 30 24 28 53 -8 36 -46 91 -33
91 22 0 13 9 29 21 36 28 18 49 0 49 -43 0 -36 15 -53 57 -64 20 -6 27 -13 25
-28 -6 -39 22 -48 86 -25 88 32 141 44 207 48 89 5 205 59 369 171 133 91 167
116 296 214 80 61 220 234 308 379 37 61 137 263 165 333 15 37 27 86 27 110
0 32 3 38 11 27 7 -11 9 -6 7 20 -2 24 1 34 10 33 8 -2 12 10 13 35 0 30 2 33
9 17 7 -16 9 -12 8 17 -1 20 3 42 9 50 12 14 27 82 25 113 0 10 3 24 7 30 18
22 39 147 51 290 21 260 -9 484 -101 765 -9 30 -20 67 -23 82 -5 21 -19 34
-55 52 -27 14 -61 40 -76 58 -28 33 -28 33 -22 144 l6 112 -66 103 c-137 216
-253 339 -425 456 -197 132 -233 146 -398 151 -126 4 -139 6 -205 37 -99 45
-305 213 -305 247 0 24 -25 40 -52 33 -13 -3 -52 -31 -88 -60 -82 -70 -106
-72 -164 -12 -22 23 -50 54 -61 69 -25 35 -55 40 -129 24z m-932 -1637 c61
-12 76 -16 131 -39 56 -23 60 -27 63 -56 1 -16 7 -46 14 -67 16 -53 1 -65 -49
-39 -196 103 -427 71 -489 -68 -30 -67 -34 -89 -34 -193 l0 -112 28 43 c15 23
39 48 55 55 15 6 27 15 27 19 0 5 9 8 20 8 11 0 20 5 20 10 0 6 13 10 29 10
17 0 33 5 36 10 8 14 130 13 174 -2 90 -29 171 -83 171 -114 0 -8 5 -14 10
-14 6 0 10 -8 10 -18 0 -10 3 -22 7 -26 20 -20 33 -92 33 -186 0 -131 -24
-210 -85 -274 -72 -77 -151 -106 -289 -106 -137 0 -209 24 -286 96 -54 50
-100 135 -116 214 -12 60 -16 492 -4 504 5 5 10 25 10 42 0 18 5 36 10 39 6 3
10 14 10 24 0 21 22 71 33 71 4 0 7 5 7 12 0 17 97 108 115 108 8 0 15 5 15
10 0 6 11 10 24 10 14 0 28 5 31 10 3 6 21 10 38 10 18 0 39 5 47 10 20 13
110 12 184 -1z m1154 -76 l3 -61 -138 -209 c-76 -114 -141 -215 -144 -223 -4
-9 -14 -22 -23 -29 -9 -7 -16 -19 -16 -26 0 -6 -9 -20 -20 -30 -11 -10 -20
-23 -20 -30 0 -7 -9 -20 -20 -30 -11 -10 -20 -24 -20 -32 0 -7 -4 -13 -9 -13
-5 0 -14 -13 -21 -30 -7 -16 -16 -30 -21 -30 -5 0 -9 -5 -9 -10 0 -6 -23 -44
-50 -85 l-50 -75 277 -2 278 -3 0 -75 0 -75 -310 -3 c-170 -2 -343 0 -382 3
l-73 7 0 72 c0 60 3 74 20 86 11 8 20 22 20 32 0 10 4 18 8 18 5 0 15 12 23
28 8 15 22 36 32 46 9 11 17 26 17 33 0 7 5 13 11 13 8 0 9 4 0 13 -13 16 -5
28 15 20 8 -3 14 0 14 6 0 7 9 21 20 33 11 12 20 28 20 35 0 7 5 13 10 13 6 0
10 6 10 13 0 7 9 23 20 35 11 12 20 25 20 30 0 4 8 17 18 28 9 10 23 31 31 47
8 15 18 27 23 27 4 0 8 6 8 13 0 7 8 22 18 33 9 10 23 31 31 47 8 15 18 27 23
27 4 0 8 8 8 18 0 10 9 24 20 32 11 8 20 21 20 30 0 9 9 22 20 30 11 8 20 22
20 32 0 10 4 18 8 18 5 0 16 16 25 35 l17 35 -273 2 -272 3 -3 73 -3 72 383
-2 383 -3 3 -62z m346 50 c3 -10 6 -263 8 -563 l3 -545 -26 -9 c-14 -5 -55 -6
-90 -2 l-65 7 2 557 c1 306 3 560 3 565 1 4 37 7 80 7 67 0 80 -3 85 -17z
m731 7 c3 -5 26 -10 50 -10 24 0 47 -4 50 -10 3 -5 15 -10 26 -10 10 0 19 -4
19 -10 0 -5 6 -10 14 -10 19 0 80 -73 104 -124 29 -62 45 -169 39 -250 -6 -74
-34 -176 -49 -176 -4 0 -8 -6 -8 -14 0 -20 -64 -81 -107 -102 -60 -28 -167
-43 -315 -43 l-138 -1 0 -175 c0 -194 2 -189 -67 -187 -18 0 -49 1 -68 1 l-35
1 0 565 0 565 239 0 c149 0 242 -4 246 -10z m705 -1276 c0 -8 -5 -12 -10 -9
-6 4 -8 11 -5 16 9 14 15 11 15 -7z m-23 -46 c-3 -8 -6 -5 -6 6 -1 11 2 17 5
13 3 -3 4 -12 1 -19z m-17 -28 c0 -5 -5 -10 -11 -10 -5 0 -7 5 -4 10 3 6 8 10
11 10 2 0 4 -4 4 -10z m-40 -80 c0 -5 -5 -10 -11 -10 -5 0 -7 5 -4 10 3 6 8
10 11 10 2 0 4 -4 4 -10z m-23 -52 c-3 -8 -6 -5 -6 6 -1 11 2 17 5 13 3 -3 4
-12 1 -19z m-37 -68 c0 -5 -4 -10 -10 -10 -5 0 -10 5 -10 10 0 6 5 10 10 10 6
0 10 -4 10 -10z m-60 -100 c0 -5 -5 -10 -11 -10 -5 0 -7 5 -4 10 3 6 8 10 11
10 2 0 4 -4 4 -10z m-240 -300 c0 -5 -4 -10 -10 -10 -5 0 -10 5 -10 10 0 6 5
10 10 10 6 0 10 -4 10 -10z m-165 -126 c-14 -14 -29 -24 -32 -20 -6 6 36 45
50 46 4 0 -4 -12 -18 -26z m-151 -108 c-10 -8 -21 -12 -23 -10 -3 2 4 11 15
18 10 8 21 12 23 10 3 -2 -4 -11 -15 -18z m-44 -26 c0 -5 -5 -10 -11 -10 -5 0
-7 5 -4 10 3 6 8 10 11 10 2 0 4 -4 4 -10z m-60 -40 c0 -5 -5 -10 -11 -10 -5
0 -7 5 -4 10 3 6 8 10 11 10 2 0 4 -4 4 -10z m-60 -40 c0 -5 -4 -10 -10 -10
-5 0 -10 5 -10 10 0 6 5 10 10 10 6 0 10 -4 10 -10z m-1795 -20 c3 -5 1 -10
-4 -10 -6 0 -11 5 -11 10 0 6 2 10 4 10 3 0 8 -4 11 -10z m1490 -80 c4 -6 -7
-10 -27 -10 -25 0 -29 3 -18 10 19 13 37 13 45 0z m-1242 -7 c-7 -2 -19 -2
-25 0 -7 3 -2 5 12 5 14 0 19 -2 13 -5z m1157 -13 c0 -5 -9 -10 -21 -10 -11 0
-17 5 -14 10 3 6 13 10 21 10 8 0 14 -4 14 -10z m-60 -20 c0 -5 -7 -10 -15
-10 -8 0 -15 5 -15 10 0 6 7 10 15 10 8 0 15 -4 15 -10z"/>
<path d="M1430 2551 c-81 -14 -112 -36 -168 -118 -26 -37 -30 -134 -8 -197 27
-78 94 -136 157 -136 15 0 31 -4 34 -10 3 -5 19 -10 35 -10 16 0 32 5 35 10 3
6 22 10 41 10 19 0 34 5 34 10 0 6 7 10 16 10 20 0 34 15 62 68 19 37 22 60
22 147 0 59 -4 107 -10 110 -5 3 -10 13 -10 21 0 18 -36 55 -70 71 -34 16
-115 23 -170 14z"/>
<path d="M3543 2956 c-23 -11 -23 -12 -23 -233 0 -123 -1 -226 -2 -230 -2 -5
67 -9 153 -11 165 -3 200 4 247 48 39 37 52 85 52 191 0 98 -11 135 -53 187
-21 26 -80 42 -158 42 -43 0 -81 4 -84 10 -4 6 -13 5 -25 -2 -15 -10 -22 -10
-32 0 -14 14 -44 14 -75 -2z"/>
</g>
</svg>
