/* XPM */
static char *_920_e1485d973ba9e35dfa163ee736a69bfe9e5eb81fbb3d215fad2b3ea4a399aad1[] = {
/* columns rows colors chars-per-pixel */
"16 16 127 2 ",
"   c black",
".  c #010000",
"X  c #000100",
"o  c #010100",
"O  c #000001",
"+  c #010001",
"@  c #000101",
"#  c #010101",
"$  c #020204",
"%  c #030204",
"&  c #030305",
"*  c #020206",
"=  c #020504",
"-  c #020407",
";  c #050409",
":  c #05060A",
">  c #05090B",
",  c #06080D",
"<  c #070A0D",
"1  c #090D10",
"2  c #090C15",
"3  c #090F14",
"4  c #090F15",
"5  c #0B0D1A",
"6  c #091115",
"7  c #0B1019",
"8  c #12162B",
"9  c #14172F",
"0  c #182438",
"q  c #182638",
"w  c #1A233C",
"e  c #1B233C",
"r  c #1A233D",
"t  c #1A313B",
"y  c #313233",
"u  c #323637",
"i  c #1D3342",
"p  c #203548",
"a  c #203849",
"s  c #26265C",
"d  c #26285C",
"f  c #253956",
"g  c #29505C",
"h  c #2A515E",
"j  c #324A74",
"k  c #39657E",
"l  c #3A378A",
"z  c #3B4189",
"x  c #3B428C",
"c  c #3A5C84",
"v  c #3D518C",
"b  c #3F6B8E",
"n  c #404899",
"m  c #417F92",
"M  c #427B95",
"N  c #447A9B",
"B  c #4540A3",
"V  c #4D62B5",
"C  c #4F62B6",
"Z  c #4E64B9",
"A  c #507EB7",
"S  c #5073BC",
"D  c #524EC4",
"F  c #5255C4",
"G  c #5B73D3",
"H  c #5E76DE",
"J  c #615CE9",
"K  c #645EF1",
"L  c #6F6AEC",
"P  c #766BEE",
"I  c #6579ED",
"U  c #6E79ED",
"Y  c #6460F1",
"T  c #6568F0",
"R  c #666BF0",
"E  c #6670F1",
"W  c #488C9C",
"Q  c #528EBA",
"!  c #5393B9",
"~  c #588ACA",
"^  c #5A95CE",
"/  c #5A88D2",
"(  c #5D8AD4",
")  c #5AA2CB",
"_  c #60BAD7",
"`  c #7687EE",
"'  c #6A86F1",
"]  c #688CF2",
"[  c #6894F1",
"{  c #6996F2",
"}  c #66A8EC",
"|  c #79BCEE",
" . c #6AA8F3",
".. c #6AB0F3",
"X. c #6BBBF4",
"o. c #70B3F3",
"O. c #72B2F3",
"+. c #73BBF4",
"@. c #69CCEC",
"#. c #7BD2EF",
"$. c #6CC1F4",
"%. c #6CCAF4",
"&. c #6DCBF5",
"*. c #6DD2F4",
"=. c #6DD3F4",
"-. c #6FD4F4",
";. c #6EDCF5",
":. c #78D6F3",
">. c #7DDCF2",
",. c #7EDFF5",
"<. c #888690",
"1. c #999BA7",
"2. c #A4A4B9",
"3. c #A0BFC8",
"4. c #B2B1CF",
"5. c #A4A0DB",
"6. c #9492E9",
"7. c #849EF0",
"8. c #A49DE8",
"9. c #90B6F3",
"0. c #AFB8E1",
"q. c #B6C6D8",
"w. c #8CCCF0",
"e. c #91D5F2",
"r. c #A4C5F1",
"t. c #A0DAF5",
"y. c None",
/* pixels */
"y.y.y.y.| o. .( { ] ' 0.y.y.y.y.",
"y.y.y.w.X...c     2 G I U y.y.y.",
"y.y.e.) Q ^ 4 X @       x R y.y.",
"y.:.&.> @ .   O .   O . @ F 6.y.",
"y.-.M   X o   O   . + O X s Y y.",
"3._   X $ O # X .   @ . X X J 4.",
",.h   ! 1 - 7 j % r Z 5 z # B 8.",
";.g X N b 3 = f @ w V * n X l P ",
"u m O k O p A X   e C :     D 5.",
"y @.  6 a   q 0 & , 8 #     K <.",
"W =.t   X O O X   X   X O d L y.",
">.*.%.< o X O X   # . O ; T 1.y.",
"y.#.t.$.i O   +       9 E 2.y.y.",
"y.y.y.y.+.} ~ / S v H ` y.y.y.y.",
"y.y.y.y.y.O.r.9.[ 7.y.y.y.y.y.y.",
"y.y.y.y.y.q.y.y.y.y.y.y.y.y.y.y."
};
