/* XPM */
static char *_8090_80f8c247e207268cd533f463e058901cc6182229adfa0d21b84630d1fb78a433[] = {
/* columns rows colors chars-per-pixel */
"32 32 147 2 ",
"   c gray3",
".  c #080908",
"X  c #090908",
"o  c #080A08",
"O  c #090A08",
"+  c #080B08",
"@  c #090B08",
"#  c #080A09",
"$  c #090A09",
"%  c #080B09",
"&  c #090B09",
"*  c #080B0A",
"=  c #090B0A",
"-  c #080A0B",
";  c #080B0B",
":  c #090B0B",
">  c #080C0A",
",  c #090C0A",
"<  c #090D0B",
"1  c #0A0C0A",
"2  c #0A0D0B",
"3  c #090A0C",
"4  c #090B0C",
"5  c #080A0D",
"6  c #080B0D",
"7  c #090B0D",
"8  c #0A0B0C",
"9  c #0B0B0C",
"0  c #090B0E",
"q  c #080B0F",
"w  c #0A0B0E",
"e  c #0B0B0E",
"r  c #090C0C",
"t  c #090C0D",
"y  c #0A0C0C",
"u  c #0A0D0C",
"i  c #0A0C0D",
"p  c #0B0C0D",
"a  c #0A0D0D",
"s  c #0B0D0D",
"d  c #090C0E",
"f  c #090D0E",
"g  c #090C0F",
"h  c #0A0D0E",
"j  c #0B0D0E",
"k  c #0A0C0F",
"l  c #0A0D0F",
"z  c #0B0F0F",
"x  c #090B11",
"c  c #090D10",
"v  c #0A0C10",
"b  c #0B0D10",
"n  c #0B0C11",
"m  c #0B0E10",
"M  c #0B0F10",
"N  c #0B0E11",
"B  c #080D12",
"V  c #0B0F12",
"C  c #0C0D11",
"Z  c #0D0D11",
"A  c #0D0E11",
"S  c #0C0F11",
"D  c #0C0C12",
"F  c #0D0D13",
"G  c #0C0E13",
"H  c #0E0E15",
"J  c #0B0B18",
"K  c #0C0C18",
"L  c #0D0D18",
"P  c #0E0E18",
"I  c #0E0F1B",
"U  c #0C1010",
"Y  c #0C1011",
"T  c #0D1012",
"R  c #0C1013",
"E  c #0C1312",
"W  c #091114",
"Q  c #0D1015",
"!  c #0E1015",
"~  c #0E1314",
"^  c #0D1016",
"/  c #0C1116",
"(  c #0D1116",
")  c #0E1116",
"_  c #0D1316",
"`  c #0E1317",
"'  c #0F1416",
"]  c #0F1516",
"[  c #0F1417",
"{  c #0F1119",
"}  c #0F1218",
"|  c #0F1318",
" . c #0E1518",
".. c #0E1618",
"X. c #0F161B",
"o. c #101116",
"O. c #101416",
"+. c #101417",
"@. c #101019",
"#. c #101219",
"$. c #11121A",
"%. c #10131A",
"&. c #101518",
"*. c #101719",
"=. c #10141A",
"-. c #12151A",
";. c #13151B",
":. c #10161A",
">. c #10161B",
",. c #11161C",
"<. c #11171C",
"1. c #12171D",
"2. c #13171D",
"3. c #121A1B",
"4. c #11191D",
"5. c #12181D",
"6. c #12191D",
"7. c #161B1E",
"8. c #101321",
"9. c #131625",
"0. c #161625",
"q. c #171725",
"w. c #161726",
"e. c #111A20",
"r. c #131922",
"t. c #151823",
"y. c #131C20",
"u. c #151B24",
"i. c #171A24",
"p. c #161B26",
"a. c #191B21",
"s. c #191A26",
"d. c #14172C",
"f. c #171C2A",
"g. c #171B2C",
"h. c #172026",
"j. c #162228",
"k. c #1E2131",
"l. c #1B2830",
"z. c #20212E",
"x. c #232545",
"c. c #292C4D",
"v. c #2E3244",
"b. c #3C4260",
"n. c #464C6C",
"m. c #525793",
"M. c None",
/* pixels */
"M.M.M.M.M.M.M.M.M.M.M.M.M.M.M.M.M.M.M.M.M.M.M.M.M.M.M.M.M.M.M.M.",
"M.M.M.M.M.M.M.M.M.M.M.M.M.M.M.M.M.M.M.M.M.M.M.M.M.M.M.M.M.M.M.M.",
"M.M.M.M.M.M.M.M.M.M.M.M.M.M.M.K @.M.M.M.M.M.M.M.M.M.M.M.M.M.M.M.",
"M.M.M.M.M.M.M.M.M.M.M.M.M.M.V # o b o o.M.M.M.M.M.M.M.M.M.M.M.M.",
"M.M.M.M.M.M.M.M.M.M.M.M.M.F o o o o o o i 8.D M.M.M.M.M.M.M.M.M.",
"M.M.M.M.M.M.M.M.M.M.M.M.M.* o o o o o o o o o o } M.M.M.M.M.M.M.",
"M.M.M.M.M.M.M.m N B ( W H f o o o o o o o o o o o J M.M.M.M.M.M.",
"M.M.M.M.M.M.M...o o o o j o o o o o O o o o O o o o I M.M.M.M.M.",
"M.M.M.M.M.M.M.] o o o o # o # o o O o o o o o o O O o P M.M.M.M.",
"M.M.M.M.M.M.M.o o o O o o o o o o o o O + o o o + o o v M.M.M.M.",
"M.M.M.M.M.;.. o + + o o o o o o O o o + o o o @ o o o w M.M.M.M.",
"M.M.M.M.M.o o o o o o o o o o o # o o o o o # o o o o o L M.M.M.",
"M.M.M.M.z o o s 4.+.[ , [ 6.5.2.1.y | T o f.b.g.k.o + O 7 M.M.M.",
"M.M.M.M.X o O h.R Y N M R 4 9 -.M.; Q ^ $ M.n.v.x.c.o o o M.M.M.",
"M.M.M.M.o + *.M.o o o o + o o p. .o ( q.$ M.. o z.M.  o o M.M.M.",
"M.M.M.M.o o :.M.j.e.&.u o o >.=.% o ( w.& M.  + a.m.# o @ x M.M.",
"M.M.M.M.O + O.M.a o l.q + S r.M o o ` i.# M.#.G Z d.# # o < M.M.",
"M.M.M.M.. o *.M.o o X.M.. u.) O o o { s.$ M.b g C o o o o M.M.M.",
"M.M.M.M.U o p M.<._ y.$.,.M.%.^ ! : / 0.% M.# o o o o o - M.M.M.",
"M.M.M.M.A O o 7.3.~ A = ' M.n c l r ) t.o 9.o o o o o o 0 M.M.M.",
"M.M.M.M.M.o O o # o o o O o o o o O o # o o o o o o + o e M.M.M.",
"M.M.M.M.M.E o o o o o + o o O o O o o o o o o o + o o t M.M.M.M.",
"M.M.M.M.M.M.2 o o o o o o o o o + o o o o + o o o o o k M.M.M.M.",
"M.M.M.M.M.M.M.# o o o o + + o o + o o o o o o o o o q M.M.M.M.M.",
"M.M.M.M.M.M.M.1 = o o o o o o # o o o + o # o o o i M.M.M.M.M.M.",
"M.M.M.M.M.M.M.M.M.= o + o o o O o # o o o # o o a M.M.M.M.M.M.M.",
"M.M.M.M.M.M.M.M.M.M.> # o o o + o o o o O o 8 d M.M.M.M.M.M.M.M.",
"M.M.M.M.M.M.M.M.M.M.M.M.* r 3 r 5 h b 4 4 6 M.M.M.M.M.M.M.M.M.M.",
"M.M.M.M.M.M.M.M.M.M.M.M.M.M.M.M.M.M.M.M.M.M.M.M.M.M.M.M.M.M.M.M.",
"M.M.M.M.M.M.M.M.M.M.M.M.M.M.M.M.M.M.M.M.M.M.M.M.M.M.M.M.M.M.M.M.",
"M.M.M.M.M.M.M.M.M.M.M.M.M.M.M.M.M.M.M.M.M.M.M.M.M.M.M.M.M.M.M.M.",
"M.M.M.M.M.M.M.M.M.M.M.M.M.M.M.M.M.M.M.M.M.M.M.M.M.M.M.M.M.M.M.M."
};
