/* XPM */
static char *_9599_2094a9f75df4815670441f87a773334b0ebf42e6f825c7d6b683faa3025208dd[] = {
/* columns rows colors chars-per-pixel */
"64 64 57 1 ",
"  c #070907",
". c #090A07",
"X c #080A08",
"o c #0B0D12",
"O c #0D0F19",
"+ c #0D1115",
"@ c #0E1219",
"# c #0F181D",
"$ c #101016",
"% c #11151C",
"& c #11181D",
"* c #091321",
"= c #131523",
"- c #131C24",
"; c #191D26",
": c #101429",
"> c #151A2B",
", c #181D2C",
"< c #152023",
"1 c #1A2227",
"2 c #16222B",
"3 c #19232B",
"4 c #19282D",
"5 c #1B2632",
"6 c #1C2933",
"7 c #1C2738",
"8 c #1E2D3A",
"9 c #202737",
"0 c #23253B",
"q c #212D3D",
"w c #22353C",
"e c #29323F",
"r c #121249",
"t c #212643",
"y c #242A43",
"u c #252A4D",
"i c #282F4E",
"p c #243444",
"a c #2A3141",
"s c #263C48",
"d c #3E3F46",
"f c #292C53",
"g c #292D5D",
"h c #2A3253",
"j c #2C3159",
"k c #2B3262",
"l c #2E3869",
"z c #353D74",
"x c #4A4B65",
"c c #424768",
"v c #5767AF",
"b c #7B83AC",
"n c #7986CB",
"m c #8991C0",
"M c #8E98D4",
"N c #9AA2F3",
"B c None",
/* pixels */
"BBBBBBBBBBBBBBBBBBBBBBBBBBBBBBBBBBBBBBBBBBBBBBBBBBBBBBBBBBBBBBBB",
"BBBBBBBBBBBBBBBBBBBBBBBBBBBBBBBBBBBBBBBBBBBBBBBBBBBBBBBBBBBBBBBB",
"BBBBBBBBBBBBBBBBBBBBBBBBBBBBBBBBBBBBBBBBBBBBBBBBBBBBBBBBBBBBBBBB",
"BBBBBBBBBBBBBBBBBBBBBBBBBBBBBBBBBBBBBBBBBBBBBBBBBBBBBBBBBBBBBBBB",
"BBBBBBBBBBBBBBBBBBBBBBBBBBBBBBBBBBBBBBBBBBBBBBBBBBBBBBBBBBBBBBBB",
"BBBBBBBBBBBBBBBBBBBBBBBBBBBBBB>X.@BB+XBBBBBBBBBBBBBBBBBBBBBBBBBB",
"BBBBBBBBBBBBBBBBBBBBBBBBBBBBB@XX..@$XX+BBBBBBBBBBBBBBBBBBBBBBBBB",
"BBBBBBBBBBBBBBBBBBBBBBBBBBBB..XXX..XXXXXBBBBBBBBBBBBBBBBBBBBBBBB",
"BBBBBBBBBBBBBBBBBBBBBBBBBBB+XXXXX.XXXXX  @BBBBBBBBBBBBBBBBBBBBBB",
"BBBBBBBBBBBBBBBBBBBBBBBBBB+XXXXXXXXXXXXXXXX.. $BBBBBBBBBBBBBBBBB",
"BBBBBBBBBBBBBBBBBBBBBBBBBBXXXXXXXXXXXXXXXXXXXXX >BBBBBBBBBBBBBBB",
"BBBBBBBBBBBBBBBBBBBBBBBBB+XXX X XXX.X XXXXXX XXX..BBBBBBBBBBBBBB",
"BBBBBBBBBBBBBBBBBBB*>@-BB.oXXXXXXXXXXXX XXXXXXXX.X.rBBBBBBBBBBBB",
"BBBBBBBBBBBBBB1.XX.X.XX+BX&XXXXXXXXXXXXXXXXXXXXXXXXXBBBBBBBBBBBB",
"BBBBBBBBBBBBBB<.XXXXXXXX++.XXXXXXXXXXXXXXXXX XXXXX.XXBBBBBBBBBBB",
"BBBBBBBBBBBBBB4.XXXXXXX..XXXXXXXXXXXXXX .XXXXXXXXXXXXoBBBBBBBBBB",
"BBBBBBBBBBBBBB<...XXXXXX XXXXXXXX XX XXXXX XXXXXXXXXXX>BBBBBBBBB",
"BBBBBBBBBBBBBB3XXXXXXXXXXXX  XXXXXX XXXXXXXXXX XXXXXXXXBBBBBBBBB",
"BBBBBBBBBBBBBBXXXXXXXXXXXXXXXXXXXXXXXXXXXXXX XX XXXXXXXOBBBBBBBB",
"BBBBBBBBBBBBB+XXXXXXXXXXXXXXXXXXX XX XXX X XXXXXXXXXXXXOBBBBBBBB",
"BBBBBBBBBBB%XXXXXXXXXXXXXXXXXXXXX XXXXXXX XXXXXXXXXXXXX@BBBBBBBB",
"BBBBBBBBBB+.XXXXX XXXXXXXXXXXXXXXX XXXXXXXXXXXXXXXXXX XXBBBBBBBB",
"BBBBBBBBB-.  XX.XXXXXXX XXXXXXX...XXXXXXXX XXXXXXXXXXXX .BBBBBBB",
"BBBBBBBBB.XXXXXXX XXXXXXXXXXXX... XXXXXXXXXXXXXXXXXXX XXX=BBBBBB",
"BBBBBBBB<XXXXXXXXXXX... ...X.....XX X. .X.X....XX.XX XX XOBBBBBB",
"BBBBBBBB.XXX...&8<<<2-+XXp66675546#Xoq5X.Xhfmvhucu.XXXXXXXBBBBBB",
"BBBBBBBB.XXX..<6.B+&BB+XX2oooooXBBoX@oo .X,BnMbjtlu.XXXXXXoBBBBB",
"BBBBBBBB.XXX..wB-oXX.@#XXXX ...eBB.X@BBX.XBB...XOBB> XX XXOBBBBB",
"BBBBBBBwXX XX2+BXXXXXX.XXXXXXX+qB-XXoBB.XoBB  XX.xBkXXXXXXoBBBBB",
"BBBBBBB#XXXX 4BBXXXXX  .X.XXXXyB-XXX@BB.XXBBXXXX.yBg.XXXX.OBBBBB",
"BBBBBBB+XXXX.4B#Xw<23%  XXXXX>&BXX .@BB..XBBXXXX.dNB X XXX@BBBBB",
"BBBBBBBpXXXXX1B-soo#B+#.XXXXo5B%XXXX@BB.XXBBXX..X,zfXXXXXXOBBBBB",
"BBBBBBBBXXXX.3BB@XXXpBBXXX..8BBXXXXX@BB.XXBBXX.XOOB=XXXXXX@BBBBB",
"BBBBBBBBXXXXX1BBXXXX.BBoXX.2&B+ XXXX@BB.XXBBB,*@.B:.XX XX oBBBBB",
"BBBBBBBBXXXXX4B#XXXX.5B-XXo7B-XXXXXX@BB.XXBB%OOo@@XXXXXXX oBBBBB",
"BBBBBBBB XX.X2BBXXXXX5B-X.yXB.XXXXXX@BB.XXBB..XXX.XXXXXXXXoBBBBB",
"BBBBBBBBXX.XX&BBXXXX+4BXX>&B+XXX....@BB.XXBB XX XXXXXXXX..oBBBBB",
"BBBBBBBB<XXXX.pB26o68BB.X7BB-<-=-=@.+BB.XXBBXXXXXXXXXXXXXoBBBBBB",
"BBBBBBBBBXXXXX+BB.oX.Bo.X3BBB. X  +.@BB.XXBBXXXXXXX.XXXXXoBBBBBB",
"BBBBBBBBBXXXXXXX3#-#+....&a5+++#$+oXX=9.XX-8XXXXXXXXXXXXXoBBBBBB",
"BBBBBBBBB<.XX.X...XXXXXXXXXXXXXX.XXXXXXXXXXXXXXXXX XXXXXoBBBBBBB",
"BBBBBBBBBBX.XXXXXXXXXXXXXXXXXXXXXXXXXXXXX  XXXXX XXXXXXXOBBBBBBB",
"BBBBBBBBBB&XXXXXXXXXXX XXXXXXXXXXXXXXXXXXXXXXXXXXXXXXXXoXBBBBBBB",
"BBBBBBBBBBBoX.X.XXXXXXXXXXXXXXXXXXXXXXXXX XXXXXX X XXXXoBBBBBBBB",
"BBBBBBBBBBB&XXXXXXXXXXX XXXXXXXXXXXX XXXX X ..XXXX XXXo.BBBBBBBB",
"BBBBBBBBBBBB+XXXXXXXXXXXX XXXXX XXXXXXXXXXXX..XXXXXXXXoBBBBBBBBB",
"BBBBBBBBBBBBB+XXXXXX XX XXXXXXXXXXX XXXXXXXX.XXXXXXXXOBBBBBBBBBB",
"BBBBBBBBBBBBB+X XXXXXXXXXXX XXXXXXXXXXXX XX .XXXXXXXoXBBBBBBBBBB",
"BBBBBBBBBBBBBB+X...XXXXXXXXXX  XXXXXX XXXXXXXXXXXXXXoBBBBBBBBBBB",
"BBBBBBBBBBBBBBBoo..XXXXXXXXXXX  XXXXXXX XXXXXXXXXXX+BBBBBBBBBBBB",
"BBBBBBBBBBBBBBBBBo..XXXXX XX XXXXXXXXXXXXXXXXXXX.ooBBBBBBBBBBBBB",
"BBBBBBBBBBBBBBBBBB+.XXXXXXXXXXXXXXXXXXXXXXXXXXXXo.BBBBBBBBBBBBBB",
"BBBBBBBBBBBBBBBBBBBoX.X.XXXXXXXXXXXXX X XXX XXooXBBBBBBBBBBBBBBB",
"BBBBBBBBBBBBBBBBBBBBBoX.X XXXXXXXXXX  XXXXXXXoXBBBBBBBBBBBBBBBBB",
"BBBBBBBBBBBBBBBBBBBBBBooXXo+oXo+XoXoXo   ooooXBBBBBBBBBBBBBBBBBB",
"BBBBBBBBBBBBBBBBBBBBBBBBBXXX..XXoX+XoooooXX BBBBBBBBBBBBBBBBBBBB",
"BBBBBBBBBBBBBBBBBBBBBBBBBBBBBBBBBBBBBBBXBBBBBBBBBBBBBBBBBBBBBBBB",
"BBBBBBBBBBBBBBBBBBBBBBBBBBBBBBBBBBBBBBBBBBBBBBBBBBBBBBBBBBBBBBBB",
"BBBBBBBBBBBBBBBBBBBBBBBBBBBBBBBBBBBBBBBBBBBBBBBBBBBBBBBBBBBBBBBB",
"BBBBBBBBBBBBBBBBBBBBBBBBBBBBBBBBBBBBBBBBBBBBBBBBBBBBBBBBBBBBBBBB",
"BBBBBBBBBBBBBBBBBBBBBBBBBBBBBBBBBBBBBBBBBBBBBBBBBBBBBBBBBBBBBBBB",
"BBBBBBBBBBBBBBBBBBBBBBBBBBBBBBBBBBBBBBBBBBBBBBBBBBBBBBBBBBBBBBBB",
"BBBBBBBBBBBBBBBBBBBBBBBBBBBBBBBBBBBBBBBBBBBBBBBBBBBBBBBBBBBBBBBB",
"BBBBBBBBBBBBBBBBBBBBBBBBBBBBBBBBBBBBBBBBBBBBBBBBBBBBBBBBBBBBBBBB"
};
